#!OML:ASF E:\emotionWalksFemale\Project 1\Capture day 1\Session 1\Female1.ASF
:FULLY-SPECIFIED
:DEGREES
2287
root 9.88426 15.4852 6.73347 -0.208361 3.96595 2.23639
lowerback 8.09657 0.454467 -4.12841
upperback 0.326202 0.165558 -1.35539
thorax -4.21418 0.150176 0.894304
lowerneck -5.33279 -3.766 -4.11089
upperneck 45.9453 -7.70133 6.27806
head 18.8811 -3.0654 2.54658
rclavicle 1.15295e-014 8.34896e-015
rhumerus -42.7047 -2.55427 -82.109
rradius 31.3035
rwrist 19.4478
rhand -6.35544 -49.1526
rfingers 7.12502
rthumb 19.4906 -78.1957
lclavicle 1.15295e-014 8.34896e-015
lhumerus -36.2615 5.44666 82.9104
lradius 33.3787
lwrist -16.3209
lhand -2.18843 -33.1177
lfingers 7.12502
lthumb 23.4926 -4.5322
rfemur -22.3377 21.7961 18.9588
rtibia 23.9293
rfoot -20.3372 -29.9052
rtoes 1.93702
lfemur 2.53954 -10.2723 -30.668
ltibia 30.0762
lfoot -16.9401 -0.764099
ltoes -4.90526
2288
root 9.86659 15.4751 6.81825 -0.266069 4.32123 2.56313
lowerback 7.64715 0.408441 -4.47829
upperback 0.611121 0.107438 -1.42363
thorax -3.66359 0.113951 1.02952
lowerneck -5.36866 -3.77473 -4.23502
upperneck 45.6968 -7.69605 6.37511
head 18.7383 -3.07139 2.60747
rclavicle 9.49197e-015 -1.59028e-014
rhumerus -42.3762 -2.69982 -82.0194
rradius 31.1092
rwrist 19.7391
rhand -6.093 -49.0885
rfingers 7.12502
rthumb 19.7429 -78.1059
lclavicle 9.49197e-015 -1.59028e-014
lhumerus -35.9504 5.62296 82.9399
lradius 33.2363
lwrist -16.3488
lhand -2.57811 -33.444
lfingers 7.12502
lthumb 23.1188 -4.8111
rfemur -21.7519 21.2495 19.0241
rtibia 24.1925
rfoot -20.2639 -29.9055
rtoes 1.62685
lfemur 2.88433 -10.1195 -30.8979
ltibia 30.2035
lfoot -16.7426 -1.31235
ltoes -3.44146
2289
root 9.84779 15.4672 6.89281 -0.241112 4.65746 2.62835
lowerback 7.51092 0.370328 -4.54287
upperback 0.686681 0.0618338 -1.44657
thorax -3.50648 0.0883439 1.04756
lowerneck -5.46819 -3.7723 -4.28184
upperneck 45.6948 -7.67357 6.38566
head 18.7657 -3.06429 2.62418
rclavicle -9.83984e-015 -1.43125e-014
rhumerus -42.5939 -2.56311 -82.1132
rradius 31.41
rwrist 19.6047
rhand -5.96978 -49.4617
rfingers 7.12502
rthumb 19.8614 -78.4668
lclavicle -9.83984e-015 -1.43125e-014
lhumerus -35.8387 5.69553 82.962
lradius 33.2004
lwrist -16.1696
lhand -2.92318 -33.3736
lfingers 7.12502
lthumb 22.7877 -4.69955
rfemur -21.2931 20.9993 19.2451
rtibia 24.2734
rfoot -19.7476 -30.2638
rtoes -0.154285
lfemur 2.94497 -9.86897 -30.7717
ltibia 30.5402
lfoot -16.5082 -1.76804
ltoes -3.39136
2290
root 9.82379 15.4658 6.95764 -0.0650357 4.89713 2.41031
lowerback 7.50328 0.377348 -4.36489
upperback 0.626913 0.086224 -1.39266
thorax -3.56526 0.100004 1.00097
lowerneck -5.67885 -3.79077 -4.30324
upperneck 45.8194 -7.70157 6.40215
head 18.9142 -3.06869 2.63482
rclavicle 9.74045e-015 -9.54166e-015
rhumerus -42.964 -2.1685 -82.3274
rradius 31.9848
rwrist 19.0133
rhand -6.10482 -49.7183
rfingers 7.12502
rthumb 19.7316 -78.7369
lclavicle 9.74045e-015 -9.54166e-015
lhumerus -35.7902 5.66444 82.9774
lradius 33.265
lwrist -16.0029
lhand -3.13668 -33.3057
lfingers 7.12502
lthumb 22.5828 -4.60659
rfemur -21.0491 21.3762 19.5524
rtibia 23.9585
rfoot -19.7495 -30.8836
rtoes 0.114679
lfemur 2.56903 -9.54988 -30.2305
ltibia 31.2398
lfoot -16.3042 -2.28897
ltoes -3.91075
2291
root 9.78913 15.4716 6.99908 0.336378 5.11834 1.71523
lowerback 7.65326 0.377902 -3.80752
upperback 0.420981 0.126431 -1.19462
thorax -3.86409 0.119713 0.888105
lowerneck -5.77353 -3.79198 -4.32247
upperneck 45.8214 -7.68594 6.40657
head 18.9419 -3.05976 2.64286
rclavicle -2.26118e-015 1.90833e-014
rhumerus -43.3123 -1.81271 -82.5062
rradius 32.7468
rwrist 18.5389
rhand -6.0195 -49.8052
rfingers 7.12502
rthumb 19.8136 -78.8153
lclavicle -2.26118e-015 1.90833e-014
lhumerus -35.6654 5.7736 82.9513
lradius 33.2251
lwrist -16.068
lhand -3.4576 -33.5628
lfingers 7.12502
lthumb 22.2747 -4.82655
rfemur -21.489 22.5688 20.0606
rtibia 23.7385
rfoot -19.9827 -32.0795
rtoes 1.96595
lfemur 1.75545 -9.20073 -28.9901
ltibia 31.7844
lfoot -15.8554 -2.96335
ltoes -4.74956
2292
root 9.76481 15.4812 7.07835 0.441277 5.42824 1.5868
lowerback 7.49146 0.365996 -3.65936
upperback 0.479394 0.133615 -1.1886
thorax -3.7125 0.11793 0.811413
lowerneck -5.8779 -3.80803 -4.29336
upperneck 45.75 -7.67666 6.35977
head 18.916 -3.05125 2.61196
rclavicle 5.56597e-015 1.66979e-014
rhumerus -43.1858 -1.82892 -82.534
rradius 32.6847
rwrist 18.5502
rhand -6.15677 -49.6131
rfingers 7.12502
rthumb 19.6816 -78.6368
lclavicle 5.56597e-015 1.66979e-014
lhumerus -35.4649 5.91241 82.9399
lradius 33.105
lwrist -16.1239
lhand -3.78662 -33.837
lfingers 7.12502
lthumb 21.9589 -5.06332
rfemur -21.3756 23.5731 20.1114
rtibia 23.6587
rfoot -20.4852 -33.0793
rtoes 3.11882
lfemur 1.60933 -8.93752 -28.5761
ltibia 32.1906
lfoot -15.3856 -3.47194
ltoes -4.98699
